<svg width="1265" height="1266" viewBox="0 0 1265 1266" fill="none" xmlns="http://www.w3.org/2000/svg">
<path d="M1265 632.88C1265 982.12 981.893 1265.24 632.653 1265.24C283.413 1265.24 0.292969 982.12 0.292969 632.88C0.292969 283.64 283.413 0.533691 632.653 0.533691C981.893 0.533691 1265 283.64 1265 632.88Z" fill="#040606"/>
<path d="M318.947 480.173L308.733 320.573C308.733 320.573 714.16 213.2 934.213 352.787C961.16 369.867 978.28 398.947 979.693 430.947L984.56 510.027L987.854 563.147L987.827 563.08L987.854 563.227L987.867 563.24V563.307L987.933 563.587C988.44 565.947 990.2 575.84 987.627 590.6C979.307 638.067 926.067 724.08 641.707 781.32L632.52 633.014C632.52 633.014 817.134 597.734 913.64 532.947C924.707 525.52 934.627 517.72 942.974 509.534L943 509.573L942.987 509.054C940.88 507.587 938.733 506.16 936.547 504.773C877.053 466.933 791.36 456.254 791.36 456.254C526.693 415.694 318.947 480.173 318.947 480.173Z" fill="white"/>
<path d="M285.48 834.8L282.987 794.667L277.293 702.547L277.013 698.2L276.307 685.44C278.88 643.374 316.64 546.214 623.467 484.44L632.626 632.76C632.626 632.76 452.24 667.214 354.867 730.6C342.453 738.68 331.373 747.227 322.2 756.24L321.853 756.507C330.56 762.587 339.973 768 349.707 772.854C406.467 801.12 473.8 809.507 473.8 809.507C738.48 850.067 946.226 785.587 946.226 785.587L956.44 945.2C956.44 945.2 551.013 1052.57 330.933 912.974C304 895.88 286.866 866.814 285.48 834.8Z" fill="white"/>
</svg>
