<svg width="72" height="94" viewBox="0 0 72 94" fill="none" xmlns="http://www.w3.org/2000/svg">
<path d="M0 89.5957C15.1248 70.5745 30.3447 33.6954 25.6927 9.64204C25.55 8.88443 25.3845 8.10197 25.1838 7.33193C24.8177 5.80427 24.3564 4.25177 23.7876 2.68893C23.4567 1.76571 23.1009 0.865258 22.7099 0C35.6814 12.4821 59.1133 35.0554 71.5635 47.0407C68.6283 48.8167 61.8002 52.9257 58.9354 54.679C58.2486 69.0323 53.6338 84.0501 47.3849 93.2637C53.1601 67.0658 43.1238 33.1241 29.1119 9.8863C36.1055 23.7553 36.5543 46.6639 30.6488 62.9962H44.3153L0 89.5957Z" fill="black"/>
</svg>
