<svg width="137" height="44" viewBox="0 0 137 44" fill="none" xmlns="http://www.w3.org/2000/svg">
<path d="M53.9043 31.446V10.8813H59.9538V20.2364L70.1412 10.8813H76.9784L65.6875 20.9145L64.4663 21.6338L59.0676 26.0622L59.9538 23.1839V31.4452H53.9043V31.446ZM69.2742 29.8546C68.7615 29.1901 68.2163 28.5188 67.6388 27.8408C67.0612 27.1627 66.4728 26.4914 65.876 25.8269C65.278 25.1623 64.6897 24.5214 64.1121 23.9032C63.5333 23.2851 62.9894 22.699 62.4766 22.1457L64.6632 20.6783L66.5557 19.1696C66.8835 19.4833 67.3338 19.9472 67.9053 20.5603C68.4769 21.1742 69.1205 21.8776 69.8362 22.6703C70.5518 23.4639 71.2903 24.2895 72.0528 25.1472C72.8153 26.0057 73.5502 26.849 74.2598 27.6797C74.9695 28.5095 75.6059 29.2668 76.1715 29.9491C76.3156 30.1152 76.4572 30.2814 76.5953 30.4475C76.7334 30.6136 76.8715 30.7798 77.0096 30.9459C77.1477 31.112 77.2882 31.2782 77.4335 31.4443H70.4774C70.3057 31.2596 70.146 31.0547 69.9947 30.8287C69.8422 30.6035 69.602 30.2788 69.2742 29.8546Z" fill="black"/>
<path d="M81.6276 14.7421L78.8887 13.1785C78.9931 13.1052 79.2429 12.934 79.638 12.6666C80.0318 12.3993 80.4881 12.0813 81.0068 11.712C81.5256 11.3434 82.0443 10.9648 82.563 10.5768C83.0818 10.1889 83.5249 9.83893 83.8935 9.52521C84.2609 9.21149 84.4783 8.98547 84.5443 8.84717L88.7014 10.6325C88.2811 11.0112 87.7684 11.4143 87.1644 11.8435C86.5604 12.2728 85.9228 12.6852 85.2528 13.0824C84.5827 13.4787 83.9331 13.8254 83.3015 14.1205C82.6723 14.4148 82.114 14.6231 81.6276 14.7421ZM80.7211 17.1084H86.869V31.4451H80.7211V17.1084Z" fill="black"/>
<path d="M105.274 20.5408C104.748 20.4488 104.131 20.3519 103.422 20.2498C102.713 20.1486 101.95 20.098 101.136 20.098C100.769 20.098 100.328 20.1216 99.8164 20.1672C99.3036 20.2136 98.9158 20.2642 98.654 20.319V31.445H92.7822V17.6625C93.8329 17.4044 95.0745 17.1598 96.507 16.9288C97.9384 16.6985 99.5354 16.583 101.295 16.583C101.609 16.583 101.991 16.5965 102.438 16.6243C102.884 16.6522 103.331 16.6893 103.778 16.7348C104.224 16.7803 104.671 16.836 105.118 16.9009C105.564 16.9659 105.945 17.0443 106.261 17.1362L105.274 20.5408Z" fill="black"/>
<path d="M127.105 30.9477C126.106 31.151 124.82 31.3399 123.243 31.5153C121.668 31.6907 120.012 31.7784 118.278 31.7784C116.518 31.7784 115.053 31.6123 113.885 31.28C112.715 30.9477 111.789 30.4822 111.106 29.8826C110.423 29.283 109.937 28.5678 109.648 27.7372C109.359 26.9065 109.215 25.9932 109.215 24.9972V16.8877H115.087V24.4988C115.087 25.827 115.336 26.7867 115.835 27.3771C116.333 27.9674 117.266 28.2626 118.633 28.2626C119.053 28.2626 119.499 28.2491 119.973 28.2212C120.446 28.1934 120.866 28.1614 121.233 28.1243V16.8877H127.105V30.9477V30.9477Z" fill="black"/>
<path d="M2.47021 39.1997C11.2503 31.4503 20.0856 16.4255 17.385 6.62599C17.3022 6.31733 17.2061 5.99856 17.0896 5.68484C16.8771 5.06246 16.6093 4.42996 16.2791 3.79324C16.087 3.41712 15.8805 3.05027 15.6535 2.69775C23.1836 7.78305 36.786 16.9796 44.0134 21.8625C42.3095 22.586 38.3458 24.2601 36.6827 24.9744C36.284 30.822 33.6051 36.9404 29.9776 40.6941C33.3301 30.0209 27.504 16.1928 19.3699 6.72551C23.4297 12.3758 23.6903 21.709 20.2621 28.3629H28.1956L2.47021 39.1997Z" fill="black"/>
</svg>
