<svg width="112" height="36" viewBox="0 0 112 36" fill="none" xmlns="http://www.w3.org/2000/svg">
<path d="M50.1052 17.1767L47.5985 20.0345V27.1111H42.7781V2.34326H47.5985V13.5704L49.7195 10.4915L55.6808 2.34326H61.61L53.3028 13.3493L61.851 27.1111H56.1147L50.1052 17.1767Z" fill="#040606"/>
<path d="M68.7925 27.1111H63.972V2.34326H68.7925V27.1111Z" fill="#040606"/>
<path d="M81.9363 18.0443H78.096V27.1111H73.2755V2.34326H81.9684C84.7322 2.34326 86.8639 2.99534 88.3636 4.29951C89.8633 5.60367 90.6131 7.44651 90.6131 9.82803C90.6131 11.5178 90.265 12.9297 89.5687 14.0637C88.8831 15.1864 87.8387 16.0824 86.4354 16.7514L91.4969 26.8729V27.1111H86.3229L81.9363 18.0443ZM78.096 13.9106H81.9845C83.195 13.9106 84.1323 13.5874 84.7964 12.941C85.4606 12.2833 85.7927 11.3817 85.7927 10.2363C85.7927 9.06822 85.4767 8.14963 84.8447 7.48054C84.2233 6.81144 83.2646 6.4769 81.9684 6.4769H78.096V13.9106Z" fill="#040606"/>
<path d="M112 2.34326V18.6567C112 21.3671 111.197 23.5104 109.59 25.0868C107.994 26.6631 105.808 27.4513 103.034 27.4513C100.302 27.4513 98.1331 26.6858 96.5262 25.1548C94.9194 23.6238 94.0999 21.5202 94.0678 18.8438V2.34326H98.8883V18.6907C98.8883 20.3124 99.2525 21.4975 99.9809 22.246C100.72 22.9831 101.738 23.3517 103.034 23.3517C105.744 23.3517 107.121 21.8434 107.163 18.8268V2.34326H112Z" fill="#040606"/>
<path d="M2.06054 10.1851L1.56714 2.01813C1.56714 2.01813 21.1642 -3.47623 31.8009 3.66674C33.1038 4.54183 33.9315 6.02968 33.9993 7.66647L34.2352 11.7136L34.3941 14.432L34.393 14.4286L34.3944 14.4354L34.3946 14.4371V14.4404L34.3982 14.454C34.4225 14.5742 34.5073 15.0819 34.3831 15.8369C33.9811 18.2658 31.4074 22.6667 17.662 25.5967L17.2181 18.0069C17.2181 18.0069 26.1418 16.2025 30.8069 12.8866C31.3419 12.5058 31.8211 12.108 32.2244 11.6882L32.226 11.6899L32.2254 11.6645C32.1232 11.5883 32.0198 11.5155 31.9143 11.4444C29.0381 9.50806 24.8963 8.96135 24.8963 8.96135C12.1029 6.88616 2.06054 10.1851 2.06054 10.1851" fill="#040606"/>
<path d="M0.443041 28.3336L0.322963 26.2787L0.0474815 21.5647L0.0343737 21.343L0 20.6896C0.124391 18.5366 1.94915 13.5652 16.7804 10.4034L17.2236 17.9949C17.2236 17.9949 8.50412 19.757 3.79727 23.0001C3.19706 23.4148 2.6616 23.8515 2.21824 24.3136L2.20178 24.3271C2.62211 24.6369 3.07762 24.9144 3.54768 25.1633C6.29131 26.6105 9.54625 27.0387 9.54625 27.0387C22.3398 29.1139 32.3818 25.8149 32.3818 25.8149L32.8755 33.9819C32.8755 33.9819 13.2784 39.4763 2.64066 32.3333C1.33855 31.4582 0.510032 29.9704 0.443041 28.3336" fill="#040606"/>
</svg>
