<svg width="81" height="28" viewBox="0 0 81 28" fill="none" xmlns="http://www.w3.org/2000/svg">
<path d="M32.1211 21.1845V6.03015H35.8991V12.924L42.2612 6.03015H46.5311L39.4798 13.4237L38.7172 13.9538L35.3457 17.2171L35.8991 15.096V21.1839H32.1211V21.1845ZM41.7198 20.0118C41.3996 19.5221 41.0591 19.0274 40.6984 18.5278C40.3377 18.0281 39.9703 17.5334 39.5976 17.0437C39.2241 16.554 38.8567 16.0817 38.496 15.6262C38.1345 15.1706 37.7948 14.7387 37.4746 14.331L38.8402 13.2497L40.022 12.1379C40.2267 12.3691 40.508 12.7109 40.8649 13.1627C41.2219 13.6151 41.6238 14.1334 42.0707 14.7176C42.5177 15.3024 42.9789 15.9108 43.4551 16.5428C43.9312 17.1755 44.3902 17.7969 44.8334 18.4091C45.2766 19.0206 45.674 19.5787 46.0272 20.0814C46.1172 20.2038 46.2057 20.3263 46.2919 20.4487C46.3782 20.5711 46.4644 20.6936 46.5506 20.816C46.6369 20.9384 46.7246 21.0608 46.8154 21.1833H42.4712C42.364 21.0472 42.2642 20.8962 42.1697 20.7296C42.0745 20.5637 41.9245 20.3244 41.7198 20.0118Z" fill="#04111D"/>
<path d="M49.4351 8.87527L47.7246 7.72308C47.7899 7.66901 47.9458 7.54286 48.1925 7.34585C48.4385 7.14885 48.7235 6.91456 49.0474 6.64236C49.3714 6.37078 49.6953 6.09174 50.0193 5.80587C50.3433 5.52 50.62 5.26209 50.8502 5.03091C51.0797 4.79972 51.2154 4.63317 51.2566 4.53125L53.8528 5.84689C53.5903 6.12592 53.2701 6.42298 52.8929 6.73931C52.5157 7.05563 52.1175 7.35953 51.6991 7.65224C51.2806 7.94432 50.8749 8.19974 50.4805 8.41726C50.0875 8.63415 49.7388 8.78765 49.4351 8.87527ZM48.869 10.6191H52.7084V21.184H48.869V10.6191Z" fill="#04111D"/>
<path d="M64.2016 13.1485C63.8731 13.0807 63.4877 13.0092 63.0452 12.9341C62.602 12.8595 62.1259 12.8222 61.6174 12.8222C61.388 12.8222 61.1128 12.8396 60.7933 12.8731C60.4731 12.9073 60.2309 12.9446 60.0674 12.985V21.184H56.4004V11.0274C57.0566 10.8372 57.8319 10.657 58.7266 10.4867C59.6205 10.3171 60.6178 10.2319 61.7164 10.2319C61.9129 10.2319 62.1514 10.2419 62.4303 10.2624C62.7093 10.2829 62.9882 10.3102 63.2672 10.3438C63.5462 10.3774 63.8251 10.4184 64.1041 10.4662C64.3831 10.5141 64.6208 10.5719 64.818 10.6396L64.2016 13.1485Z" fill="#04111D"/>
<path d="M77.8358 20.8173C77.2119 20.9671 76.4088 21.1063 75.4241 21.2356C74.4403 21.3648 73.4062 21.4295 72.3233 21.4295C71.224 21.4295 70.3091 21.307 69.5794 21.0622C68.849 20.8173 68.2709 20.4743 67.8442 20.0324C67.4175 19.5906 67.1138 19.0636 66.9338 18.4514C66.7531 17.8393 66.6631 17.1662 66.6631 16.4323V10.4563H70.3301V16.065C70.3301 17.0438 70.4861 17.751 70.7973 18.186C71.1085 18.6211 71.6912 18.8386 72.5445 18.8386C72.807 18.8386 73.086 18.8286 73.3814 18.8081C73.6769 18.7876 73.9393 18.764 74.1688 18.7367V10.4563H77.8358V20.8173Z" fill="#04111D"/>
<path d="M0 26.8988C5.48326 21.1881 11.001 10.1162 9.31449 2.89477C9.26275 2.66732 9.20275 2.4324 9.13001 2.20122C8.99728 1.74258 8.83006 1.27648 8.62383 0.80728C8.50385 0.530108 8.37487 0.259771 8.23314 0C12.9357 3.74742 21.4306 10.5245 25.9442 14.1227C24.8801 14.656 22.4047 15.8896 21.3661 16.4159C21.1171 20.7252 19.4441 25.2339 17.1787 28C19.2724 20.1348 15.6339 9.94464 10.5541 2.96811C13.0895 7.13191 13.2522 14.0096 11.1112 18.913H16.0658L0 26.8988Z" fill="#00A4FF"/>
<path d="M79.1214 8.23084H78.6245V9.37308H78.4217V8.23084H77.9258V8.0918H79.1214V8.23084Z" fill="#2E3943"/>
<path d="M79.6142 8.0918L80.1196 9.13724L80.625 8.0918H80.8895V9.37308H80.6856V8.87412L80.7047 8.33556L80.1971 9.37308H80.041L79.5345 8.3382L79.5547 8.87412V9.37308H79.3508V8.0918H79.6142Z" fill="#2E3943"/>
</svg>
